<?xml version="1.0" encoding="iso-8859-1"?>
<!-- Uploaded to: SVG Repo, www.svgrepo.com, Generator: SVG Repo Mixer Tools -->
<!DOCTYPE svg PUBLIC "-//W3C//DTD SVG 1.1//EN" "http://www.w3.org/Graphics/SVG/1.1/DTD/svg11.dtd">
<svg fill="#000000" version="1.1" id="Capa_1" xmlns="http://www.w3.org/2000/svg" xmlns:xlink="http://www.w3.org/1999/xlink" 
	 width="800px" height="800px" viewBox="0 0 26.683 26.684"
	 xml:space="preserve">
<g>
	<path d="M26.683,10.937c0-1.864-0.895-3.6-2.4-4.684c-0.551-2.512-2.773-4.313-5.363-4.316c-1.037-1.142-2.498-1.792-4.049-1.792
		c-1.081,0-2.158,0.334-3.062,0.945c-2.411-0.559-5.021,0.509-6.4,2.564C2.308,4.065,0,6.683,0,9.839
		c0,1.803,0.778,3.507,2.14,4.696c0.942,2.127,3.134,3.447,5.515,3.168c0.649,0.584,1.724,0.735,2.471,0.668
		c3.74-0.326,7.657,7.324,7.696,7.398l0.393,0.77l0.992-1.516c1.17-1.781,1.074-3.587,0.672-4.969c0.17,0.02,0.34,0.029,0.51,0.029
		c2.562,0,4.65-2.086,4.65-4.651c0-0.153-0.008-0.306-0.023-0.456C26.076,13.9,26.683,12.443,26.683,10.937z M23.992,14.871
		c0.029,0.186,0.045,0.373,0.045,0.562c0,2.013-1.639,3.651-3.65,3.651c-0.32,0-0.641-0.045-0.951-0.131l-0.189-0.054l-0.059,0.027
		c-0.592-0.413-1.635-1.317-1.85-2.315c-0.076-0.363-0.037-0.711,0.109-1.055c0.701-0.275,1.762-0.833,2.35-1.835
		c0.928-1.584,0.309-3.668,0.309-3.668s-2.117,0.483-3.045,2.067c-0.574,0.985-0.555,2.151-0.457,2.899
		c-0.287,0.577-0.375,1.18-0.242,1.801c0.33,1.543,1.889,2.682,2.383,3.012c0.459,1.209,0.736,2.949-0.375,4.644l-0.062,0.095
		c-0.936-1.65-3.365-5.517-6.177-6.787c0.62-0.379,1.294-0.992,1.723-1.941c0.479-0.225,1.065-0.6,1.419-1.202
		c0.668-1.146,0.221-2.65,0.221-2.65s-1.527,0.349-2.197,1.495c-0.379,0.649-0.399,1.403-0.347,1.941
		c-0.681,1.513-2.201,1.914-2.379,1.953c-0.069-0.004-0.138-0.018-0.207-0.018c-0.11,0-0.22,0.004-0.329,0.014
		c-0.445,0.043-0.925-0.043-1.293-0.189c0.761-0.715,0.714-1.839,0.665-2.713c-0.032-0.605-0.055-1.169,0.137-1.497
		c0.692-0.255,1.845-0.815,2.469-1.88c0.927-1.584,0.308-3.668,0.308-3.668s-2.116,0.483-3.044,2.067
		c-0.543,0.931-0.555,2.021-0.473,2.77l0,0c-0.485,0.607-0.439,1.448-0.395,2.263c0.062,1.127,0.056,1.84-0.702,2.156
		C5.69,17,3.779,15.875,3.015,14.039l-0.047-0.112l-0.094-0.078C1.684,12.848,1,11.387,1,9.839c0-2.341,1.597-4.389,3.779-5.032
		c-0.564,1.28-1.23,3.664,0.035,6.115c-0.196,0.491-0.377,1.195-0.204,1.896c0.311,1.263,1.655,2.015,1.655,2.015
		s0.838-1.289,0.526-2.554c-0.159-0.642-0.581-1.142-0.959-1.487c-0.009-0.057-0.024-0.113-0.054-0.167
		C4.215,7.82,5.785,4.954,6.07,4.475l0.056-0.091C7.282,2.5,9.639,1.531,11.771,2.111c0.2,0.073,2.507,0.954,2.241,2.942
		c-0.008,0.059,0,0.115,0.012,0.17c-0.267,0.402-0.544,0.969-0.533,1.603c0.02,1.209,1.081,2.17,1.081,2.17S15.597,8,15.578,6.791
		c-0.01-0.632-0.305-1.188-0.581-1.582c0.001-0.009,0.007-0.016,0.009-0.024c0.234-1.769-0.946-2.965-2.026-3.602
		c0.593-0.28,1.24-0.439,1.893-0.439c1.335,0,2.587,0.589,3.438,1.616l0.16,0.192l0.439-0.015c1.852,0,3.463,1.127,4.146,2.776
		c-1.076-0.321-2.85-0.561-4.529,0.529c-0.053,0.034-0.094,0.079-0.129,0.127c-0.525,0.22-1.178,0.596-1.584,1.23
		c-0.771,1.198-0.357,2.834-0.357,2.834s1.656-0.304,2.43-1.503c0.418-0.653,0.488-1.432,0.465-2.006
		c1.908-1.025,3.975-0.068,4.219,0.053c1.324,0.889,2.113,2.367,2.113,3.96c0,1.315-0.559,2.586-1.535,3.488l-0.197,0.182
		L23.992,14.871z"/>
</g>
</svg>